<svg width="1498" height="352" viewBox="0 0 1498 352" fill="none" xmlns="http://www.w3.org/2000/svg">
<g clip-path="url(#clip0_18_103)">
<rect width="351.257" height="351.257" rx="100" fill="white"/>
<rect width="351.257" height="351.257" rx="100" fill="url(#paint0_linear_18_103)"/>
<path d="M249.94 -14.252C231.632 25.3271 144.638 137.581 69.6798 195.738C89.604 187.661 219.624 149.265 284.243 151.85C241.702 197.622 112.949 317.404 107.779 413.04" stroke="#0B1A05" stroke-width="65" stroke-linejoin="round"/>
</g>
<path d="M426.537 257.129V85.1483H535.586V115.893H458.963V257.129H426.537ZM444.551 188.433V157.688H527.9V188.433H444.551ZM549.883 257.129V85.1483H581.349V257.129H549.883ZM642.079 260.972C633.432 260.972 625.746 259.291 619.02 255.928C612.455 252.405 607.251 247.521 603.408 241.276C599.564 235.031 597.643 227.825 597.643 219.658C597.643 211.171 599.805 203.885 604.128 197.8C608.612 191.715 614.537 186.992 621.903 183.629C629.429 180.266 637.756 178.585 646.883 178.585C651.847 178.585 656.331 178.905 660.334 179.545C664.497 180.026 668.18 180.666 671.383 181.467C674.586 182.268 677.228 183.148 679.31 184.109V178.825C679.31 172.26 676.828 166.895 671.863 162.732C666.899 158.408 660.094 156.246 651.447 156.246C645.682 156.246 640.078 157.608 634.633 160.33C629.349 162.892 624.945 166.335 621.422 170.658L601.246 154.805C605.249 149.681 609.893 145.358 615.177 141.835C620.461 138.152 626.306 135.429 632.711 133.668C639.117 131.746 645.842 130.786 652.888 130.786C671.623 130.786 685.875 135.109 695.643 143.756C705.411 152.403 710.295 165.054 710.295 181.707V257.129H679.31V244.639H677.388C675.146 247.521 672.344 250.243 668.981 252.805C665.618 255.207 661.695 257.129 657.212 258.57C652.728 260.171 647.684 260.972 642.079 260.972ZM649.525 236.472C655.93 236.472 661.295 235.111 665.618 232.389C670.102 229.506 673.465 225.823 675.707 221.34C678.109 216.856 679.31 212.132 679.31 207.168C675.787 205.407 671.783 204.046 667.3 203.085C662.816 201.964 658.252 201.403 653.609 201.403C644.321 201.403 637.916 203.165 634.393 206.688C630.87 210.211 629.109 214.534 629.109 219.658C629.109 224.462 630.79 228.465 634.153 231.668C637.676 234.871 642.8 236.472 649.525 236.472ZM778.167 260.972C767.599 260.972 758.551 259.451 751.025 256.408C743.659 253.366 737.654 249.363 733.01 244.398C728.367 239.434 724.924 233.99 722.682 228.065L750.785 215.815C753.507 221.58 757.19 225.983 761.834 229.026C766.478 231.908 771.922 233.349 778.167 233.349C783.291 233.349 787.935 232.549 792.099 230.947C796.262 229.186 798.344 226.064 798.344 221.58C798.344 218.377 797.223 215.895 794.981 214.134C792.899 212.212 790.257 210.771 787.055 209.81C783.852 208.689 780.569 207.809 777.206 207.168L762.795 204.046C756.87 202.764 751.265 200.523 745.981 197.32C740.697 193.957 736.373 189.794 733.01 184.83C729.808 179.706 728.206 173.861 728.206 167.295C728.206 159.929 730.288 153.524 734.452 148.08C738.775 142.635 744.54 138.392 751.746 135.349C759.112 132.307 767.198 130.786 776.006 130.786C784.172 130.786 791.538 131.746 798.104 133.668C804.669 135.59 810.354 138.552 815.158 142.555C819.961 146.398 823.805 151.362 826.687 157.447L799.785 169.217C797.223 164.413 793.86 161.05 789.697 159.129C785.693 157.207 781.37 156.246 776.726 156.246C771.282 156.246 766.958 157.287 763.755 159.369C760.553 161.451 758.952 163.933 758.952 166.815C758.952 169.858 760.553 172.5 763.755 174.742C766.958 176.983 770.801 178.665 775.285 179.786L793.3 184.109C805.47 186.992 814.597 191.635 820.682 198.041C826.927 204.446 830.05 212.132 830.05 221.099C830.05 229.106 827.728 236.152 823.084 242.237C818.44 248.162 812.195 252.805 804.349 256.168C796.502 259.371 787.775 260.972 778.167 260.972ZM845.165 257.129V85.1483H876.631V128.624L874.709 150.001H876.631C880.154 144.397 885.198 139.833 891.763 136.31C898.489 132.627 905.855 130.786 913.861 130.786C923.95 130.786 932.437 132.867 939.322 137.031C946.208 141.034 951.332 146.799 954.695 154.325C958.218 161.851 959.979 170.738 959.979 180.987V257.129H928.513V184.83C928.513 179.385 927.472 174.902 925.391 171.379C923.469 167.696 920.747 164.893 917.224 162.972C913.861 161.05 909.858 160.09 905.214 160.09C899.61 160.09 894.646 161.691 890.322 164.893C885.999 167.936 882.636 172.099 880.234 177.384C877.832 182.668 876.631 188.513 876.631 194.918V257.129H845.165ZM969.337 161.531V134.629H992.396V161.531H969.337ZM991.195 257.129V127.903C991.195 118.776 993.037 110.849 996.72 104.124C1000.56 97.3983 1005.85 92.2741 1012.57 88.7512C1019.46 85.0682 1027.54 83.2267 1036.83 83.2267C1040.04 83.2267 1043.32 83.4669 1046.68 83.9473C1050.04 84.4277 1053.25 85.0682 1056.29 85.8689V116.614C1053.57 115.333 1050.92 114.372 1048.36 113.732C1045.8 113.091 1043.24 112.771 1040.68 112.771C1035.23 112.771 1030.83 114.372 1027.46 117.575C1024.26 120.617 1022.66 124.941 1022.66 130.545V257.129H991.195ZM1021.46 161.531V134.629H1052.69V161.531H1021.46ZM1117.83 260.972C1105.02 260.972 1093.65 258.17 1083.72 252.565C1073.95 246.8 1066.27 239.034 1060.66 229.266C1055.22 219.338 1052.5 208.209 1052.5 195.879C1052.5 183.549 1055.22 172.5 1060.66 162.732C1066.27 152.804 1073.95 145.037 1083.72 139.433C1093.65 133.668 1105.02 130.786 1117.83 130.786C1130.64 130.786 1141.93 133.668 1151.7 139.433C1161.47 145.197 1169.07 152.964 1174.52 162.732C1180.12 172.5 1182.92 183.549 1182.92 195.879C1182.92 208.209 1180.12 219.338 1174.52 229.266C1169.07 239.034 1161.47 246.8 1151.7 252.565C1141.93 258.17 1130.64 260.972 1117.83 260.972ZM1117.83 231.668C1123.91 231.668 1129.44 230.307 1134.4 227.585C1139.53 224.702 1143.61 220.619 1146.65 215.335C1149.86 209.89 1151.46 203.405 1151.46 195.879C1151.46 188.353 1149.86 181.947 1146.65 176.663C1143.61 171.379 1139.53 167.295 1134.4 164.413C1129.44 161.531 1123.99 160.09 1118.07 160.09C1111.98 160.09 1106.3 161.531 1101.02 164.413C1095.89 167.295 1091.73 171.379 1088.53 176.663C1085.48 181.947 1083.96 188.353 1083.96 195.879C1083.96 203.405 1085.48 209.89 1088.53 215.335C1091.73 220.619 1095.89 224.702 1101.02 227.585C1106.3 230.307 1111.9 231.668 1117.83 231.668ZM1199.32 257.129V134.629H1228.87V150.962H1230.79C1232.87 147.119 1235.59 143.756 1238.96 140.874C1242.48 137.831 1246.56 135.429 1251.21 133.668C1255.85 131.907 1260.81 131.026 1266.1 131.026C1269.3 131.026 1272.18 131.266 1274.75 131.746C1277.31 132.227 1279.55 132.867 1281.47 133.668V165.134C1278.11 163.853 1274.75 162.812 1271.38 162.011C1268.18 161.05 1264.74 160.57 1261.05 160.57C1254.81 160.57 1249.36 162.171 1244.72 165.374C1240.24 168.416 1236.79 172.66 1234.39 178.104C1231.99 183.389 1230.79 189.394 1230.79 196.119V257.129H1199.32ZM1293.22 257.129V134.629H1322.76V150.001H1324.68C1327.24 146.158 1330.37 142.795 1334.05 139.913C1337.73 137.031 1341.9 134.789 1346.54 133.188C1351.34 131.586 1356.47 130.786 1361.91 130.786C1370.88 130.786 1378.49 132.867 1384.73 137.031C1391.14 141.194 1395.62 146.318 1398.18 152.403C1401.86 146.478 1407.07 141.434 1413.79 137.271C1420.68 132.947 1429.17 130.786 1439.26 130.786C1453.51 130.786 1464.16 135.109 1471.2 143.756C1478.41 152.403 1482.01 163.933 1482.01 178.344V257.129H1450.78V184.109C1450.78 176.263 1448.94 170.338 1445.26 166.335C1441.58 162.171 1436.61 160.09 1430.37 160.09C1424.92 160.09 1420.12 161.611 1415.96 164.653C1411.95 167.536 1408.83 171.619 1406.59 176.903C1404.51 182.188 1403.47 188.353 1403.47 195.398V257.129H1372V184.109C1372 176.263 1370.08 170.338 1366.24 166.335C1362.55 162.171 1357.27 160.09 1350.38 160.09C1345.26 160.09 1340.69 161.611 1336.69 164.653C1332.85 167.536 1329.89 171.619 1327.8 176.903C1325.72 182.188 1324.68 188.353 1324.68 195.398V257.129H1293.22Z" fill="white"/>
<defs>
<linearGradient id="paint0_linear_18_103" x1="-12.0554" y1="29.4858" x2="388.913" y2="351.257" gradientUnits="userSpaceOnUse">
<stop stop-color="#F8F454"/>
<stop offset="1" stop-color="#D0F20B"/>
</linearGradient>
<clipPath id="clip0_18_103">
<rect width="351.257" height="351.257" rx="100" fill="white"/>
</clipPath>
</defs>
</svg>
